HIERARCHY
ROOT Hips
{
  OFFSET 44.8108 95.3625 -9.71543
  CHANNELS 6 Xposition Yposition Zposition Zrotation Xrotation Yrotation
  JOINT spine
  {
    OFFSET 0 8.13249 0.467659
    CHANNELS 3 Zrotation Xrotation Yrotation
    JOINT spine1
    {
      OFFSET 0 10.3498 0
      CHANNELS 3 Zrotation Xrotation Yrotation
      JOINT spine2
      {
        OFFSET 0 9.91699 0
        CHANNELS 3 Zrotation Xrotation Yrotation
        JOINT Neck
        {
          OFFSET 0 25.461 1.2139
          CHANNELS 3 Zrotation Xrotation Yrotation
          JOINT Head
          {
            OFFSET 0 7.69245 0
            CHANNELS 3 Zrotation Xrotation Yrotation
            End Site
            {
              OFFSET 0 18.62 -6.14063
            }
          }
        }
        JOINT RightShoulder
        {
          OFFSET -4.17575 10.7096 -0.581445
          CHANNELS 3 Zrotation Xrotation Yrotation
          JOINT RightArm
          {
            OFFSET 0 14.0466 0
            CHANNELS 3 Zrotation Xrotation Yrotation
            JOINT RightArmRoll
            {
              OFFSET 0 7.09098 0
              CHANNELS 3 Zrotation Xrotation Yrotation
              JOINT RightForeArm
              {
                OFFSET 0 20.6535 0
                CHANNELS 3 Zrotation Xrotation Yrotation
                JOINT RightForeArmRoll
                {
                  OFFSET 0 7.95718 0
                  CHANNELS 3 Zrotation Xrotation Yrotation
                  JOINT RightHand
                  {
                    OFFSET 0 15.9683 0
                    CHANNELS 3 Zrotation Xrotation Yrotation
                    End Site
                    {
                      OFFSET 0 0 0
                    }
                  }
                }
              }
            }
          }
        }
        JOINT LeftShoulder
        {
          OFFSET 4.17575 10.7096 -0.581445
          CHANNELS 3 Zrotation Xrotation Yrotation
          JOINT LeftArm
          {
            OFFSET 0 14.0466 0
            CHANNELS 3 Zrotation Xrotation Yrotation
            JOINT LeftArmRoll
            {
              OFFSET 0 7.09099 0
              CHANNELS 3 Zrotation Xrotation Yrotation
              JOINT LeftForeArm
              {
                OFFSET 0 20.6535 0
                CHANNELS 3 Zrotation Xrotation Yrotation
                JOINT LeftForeArmRoll
                {
                  OFFSET 0 7.95718 0
                  CHANNELS 3 Zrotation Xrotation Yrotation
                  JOINT LeftHand
                  {
                    OFFSET 0 15.9683 0
                    CHANNELS 3 Zrotation Xrotation Yrotation
                    End Site
                    {
                      OFFSET 0 0 0
                    }
                  }
                }
              }
            }
          }
        }
      }
    }
  }
  JOINT RightUpLeg
  {
    OFFSET -7.20834 -1.32182 -1.10884
    CHANNELS 3 Zrotation Xrotation Yrotation
    JOINT RightUpLegRoll
    {
      OFFSET 0 18.7238 0
      CHANNELS 3 Zrotation Xrotation Yrotation
      JOINT RightLeg
      {
        OFFSET 0 -23.1866 0
        CHANNELS 3 Zrotation Xrotation Yrotation
        JOINT RightLegRoll
        {
          OFFSET 0 23.2624 0
          CHANNELS 3 Zrotation Xrotation Yrotation
          JOINT RightFoot
          {
            OFFSET 0 19.3621 0
            CHANNELS 3 Zrotation Xrotation Yrotation
            JOINT RightToeBase
            {
              OFFSET 0 16.1857 0
              CHANNELS 3 Zrotation Xrotation Yrotation
              End Site
              {
                OFFSET 0.00686052 7.83863 -0.903522
              }
            }
          }
        }
      }
    }
  }
  JOINT LeftUpLeg
  {
    OFFSET 7.20834 -1.32182 -1.10884
    CHANNELS 3 Zrotation Xrotation Yrotation
    JOINT LeftUpLegRoll
    {
      OFFSET 0 18.7239 0
      CHANNELS 3 Zrotation Xrotation Yrotation
      JOINT LeftLeg
      {
        OFFSET 0 23.1865 0
        CHANNELS 3 Zrotation Xrotation Yrotation
        JOINT LeftLegRoll
        {
          OFFSET 0 23.4775 0
          CHANNELS 3 Zrotation Xrotation Yrotation
          JOINT LeftFoot
          {
            OFFSET 0 19.147 0
            CHANNELS 3 Zrotation Xrotation Yrotation
            JOINT LeftToeBase
            {
              OFFSET 0 16.1857 0
              CHANNELS 3 Zrotation Xrotation Yrotation
              End Site
              {
                OFFSET -0.0307459 7.83863 -0.903522
              }
            }
          }
        }
      }
    }
  }
}
MOTION
Frames: 12
Frame Time: 0.00208333
43.39 91.8479 8.78544 -0.0886439 -2.02287 0.0205175 0.0154989 -0.611346 0.17924 0.0365021 2.77448 0.356363 0.0322627 4.41954 0.356054 12.3018 7.79435 -4.74602 -17.9274 3.66646 -3.28605 32.0911 -23.2594 -19.9338 -20.0314 39.4003 115.091 1.97519e-005 -5.11672e-007 -7.71514e-006 -17.1505 22.0148 7.19955 -1.25616e-006 2.19301e-007 -3.00813 8.02939 -4.95143 0.697656 -15.4307 -22.3923 23.2698 5.85012 39.6804 -114.541 -1.29009e-006 -3.79506e-007 4.203e-006 16.864 18.9516 -6.01563 1.67278e-005 6.2076e-006 3.00378 -8.0291 -4.95148 -0.69768 163.723 14.1982 6.83931 180 7.01546e-015 178.92 -174.831 35.6866 177.617 -3.16559e-006 -1.15336e-006 1.75185 -25.2024 75.0951 27.6803 8.17916 27.3314 -1.04838 -167.384 9.40257 0.610683 4.5067e-006 -1.99009e-005 -1.29439 12.3081 -35.5426 4.5963 1.494e-006 -2.10202e-006 -2.61623 26.0156 76.1292 -29.3389 -7.94676 30.139 -1.99267 
43.3834 91.5553 8.75059 -0.119621 -1.97865 0.0335176 0.024761 -0.605827 0.181029 0.0536451 2.78508 0.3589 0.0493951 4.43015 0.358307 12.3231 7.65536 -4.7341 -17.9935 3.78069 -3.27082 32.01 -23.3608 -20.0604 -20.7065 39.1952 115.967 1.97519e-005 -5.11672e-007 -7.71514e-006 -17.3101 22.5144 7.41111 -1.25616e-006 2.19301e-007 -3.00814 8.02939 -4.95143 0.697656 -15.2973 -22.4023 23.3256 6.31733 39.6422 -115.149 -1.29009e-006 -3.79506e-007 4.203e-006 16.8771 19.177 -6.10037 1.67278e-005 6.2076e-006 3.00381 -8.0291 -4.95148 -0.69768 163.73 14.6355 6.86125 180 7.01548e-015 178.926 -174.639 36.6978 177.521 -3.16558e-006 -1.15332e-006 1.93654 -26.842 76.0603 29.5188 8.1838 27.1227 -1.29101 -167.433 9.80261 0.665218 4.5067e-006 -1.99009e-005 -1.31966 12.7285 -36.4825 4.82275 1.494e-006 -2.10193e-006 -2.86719 27.5517 76.9816 -31.142 -7.98113 29.9014 -1.71346 
43.3524 91.2537 8.70721 -0.152417 -1.93215 0.0402805 0.0338404 -0.599261 0.18315 0.0705416 2.79786 0.362112 0.0662727 4.44292 0.361239 12.345 7.47561 -4.71493 -18.0598 3.93161 -3.24664 31.9456 -23.4679 -20.1883 -21.3856 38.9927 116.85 1.97519e-005 -5.11672e-007 -7.71514e-006 -17.4581 23.04 7.625 -1.25616e-006 2.19301e-007 -3.00815 8.02939 -4.95143 0.697656 -15.169 -22.4253 23.3976 6.79222 39.6028 -115.791 -1.29009e-006 -3.79506e-007 4.203e-006 16.8798 19.4416 -6.19287 1.67278e-005 6.2076e-006 3.00385 -8.0291 -4.95148 -0.69768 163.742 15.0699 6.87521 180 7.01549e-015 178.931 -174.442 37.6791 177.419 -3.16558e-006 -1.15328e-006 2.11254 -28.6391 76.9665 31.5134 8.18633 26.9262 -1.51861 -167.479 10.194 0.719686 4.5067e-006 -1.99009e-005 -1.34408 13.1428 -37.3962 5.04974 1.494e-006 -2.10182e-006 -3.11072 29.254 77.7902 -33.1042 -8.0111 29.6766 -1.45133 
43.34 90.9549 8.66889 -0.187098 -1.88336 0.0400715 0.0426289 -0.591486 0.185618 0.0870129 2.81314 0.366037 0.0827163 4.4582 0.364893 12.3691 7.25013 -4.68795 -18.1276 4.12366 -3.21249 31.8992 -23.5814 -20.3179 -22.0695 38.7947 117.74 1.97519e-005 -5.11672e-007 -7.71514e-006 -17.5924 23.5946 7.84089 -1.25616e-006 2.19301e-007 -3.00816 8.02939 -4.95143 0.697656 -15.0448 -22.4635 23.489 7.2766 39.5603 -116.473 -1.29009e-006 -3.79506e-007 4.203e-006 16.8716 19.7513 -6.29478 1.67278e-005 6.2076e-006 3.00388 -8.0291 -4.95148 -0.69768 163.761 15.4985 6.87966 180 7.0155e-015 178.936 -174.243 38.622 177.31 -3.16558e-006 -1.15324e-006 2.2771 -30.5627 77.7995 33.6315 8.18709 26.7472 -1.72511 -167.522 10.5742 0.774154 4.5067e-006 -1.99009e-005 -1.36724 13.5465 -38.2781 5.27528 1.494e-006 -2.10171e-006 -3.34387 31.1054 78.5442 -35.2048 -8.03625 29.4719 -1.21436 
43.3066 90.6593 8.60914 -0.223729 -1.83227 0.0321557 0.0510184 -0.582342 0.188445 0.10288 2.83127 0.370715 0.0985463 4.47633 0.369309 12.397 6.97397 -4.65261 -18.198 4.36123 -3.16734 31.8722 -23.7019 -20.4494 -22.759 38.6028 118.636 1.97519e-005 -5.11672e-007 -7.71514e-006 -17.7107 24.1812 8.05851 -1.25616e-006 2.19301e-007 -3.00817 8.02939 -4.95143 0.697656 -14.9234 -22.5191 23.603 7.77203 39.5122 -117.205 -1.29009e-006 -3.79506e-007 4.203e-006 16.8524 20.1116 -6.40779 1.67278e-005 6.2076e-006 3.00392 -8.0291 -4.95148 -0.69768 163.787 15.9187 6.87304 180 7.01551e-015 178.941 -174.042 39.5184 177.193 -3.16558e-006 -1.1532e-006 2.42742 -32.558 78.5468 35.816 8.18653 26.5913 -1.90448 -167.562 10.9407 0.828686 4.5067e-006 -1.99009e-005 -1.38876 13.9349 -39.1223 5.49717 1.494e-006 -2.10162e-006 -3.56369 33.0707 79.2335 -37.4052 -8.05641 29.2948 -1.01052 
43.3005 90.3908 8.56841 -0.26237 -1.77886 0.0157983 0.0589004 -0.57167 0.191647 0.117964 2.85258 0.376183 0.113583 4.49764 0.374531 12.4302 6.64214 -4.60841 -18.2723 4.64875 -3.11018 31.8659 -23.8301 -20.5831 -23.455 38.4187 119.539 1.97519e-005 -5.11672e-007 -7.71514e-006 -17.8109 24.8027 8.27763 -1.25616e-006 2.19301e-007 -3.00818 8.02939 -4.95143 0.697656 -14.8035 -22.594 23.7431 8.27993 39.4554 -117.993 -1.29009e-006 -3.79506e-007 4.203e-006 16.8221 20.5283 -6.53371 1.67278e-005 6.2076e-006 3.00395 -8.0291 -4.95148 -0.69768 163.821 16.3277 6.85377 180 7.01552e-015 178.945 -173.839 40.3597 177.069 -3.16558e-006 -1.15317e-006 2.56073 -34.5408 79.1977 37.9806 8.18521 26.4641 -2.05073 -167.597 11.291 0.883341 4.5067e-006 -1.99009e-005 -1.40821 14.3029 -39.9233 5.71298 1.494e-006 -2.10155e-006 -3.76724 35.0925 79.8498 -39.6444 -8.07152 29.1525 -0.847723 
43.2779 90.0863 8.52874 -0.304859 -1.71889 -0.00975284 0.0665919 -0.559032 0.195665 0.132861 2.87796 0.383289 0.128412 4.52302 0.381395 12.4658 6.22411 -4.55112 -18.3502 5.01547 -3.03589 31.8912 -23.9734 -20.7236 -24.1798 38.2394 120.478 1.97519e-005 -5.11672e-007 -7.71514e-006 -17.9002 25.4688 8.50697 -1.25616e-006 2.19301e-007 -3.00819 8.02939 -4.95143 0.697656 -14.6882 -22.6941 23.9168 8.80908 39.3946 -118.859 -1.29009e-006 -3.79506e-007 4.203e-006 16.7812 21.0128 -6.67831 1.67278e-005 6.2076e-006 3.00399 -8.0291 -4.95148 -0.69768 163.865 16.7396 6.82206 180 7.01553e-015 178.948 -173.631 41.1634 176.936 -3.16558e-006 -1.15315e-006 2.68195 -36.5346 79.7768 40.1519 8.18345 26.3559 -2.17524 -167.627 11.6367 0.93925 4.5067e-006 -1.99009e-005 -1.42648 14.6593 -40.6939 5.92779 1.49401e-006 -2.1015e-006 -3.96079 37.1921 80.4101 -41.9502 -8.08346 29.0332 -0.711923 
43.2762 89.8227 8.47948 -0.352435 -1.64926 -0.0441992 0.0744496 -0.544296 0.200807 0.148209 2.90766 0.392609 0.143668 4.55272 0.390468 12.5005 5.70314 -4.47849 -18.431 5.47773 -2.94194 31.9546 -24.1362 -20.8744 -24.9481 38.0574 121.477 1.97519e-005 -5.11672e-007 -7.71514e-006 -17.9873 26.1828 8.7541 -1.25616e-006 2.19301e-007 -3.0082 8.02939 -4.95143 0.697656 -14.5806 -22.8211 24.1262 9.36361 39.332 -119.812 -1.29009e-006 -3.79506e-007 4.203e-006 16.7315 21.567 -6.84444 1.67278e-005 6.2076e-006 3.00402 -8.0291 -4.95148 -0.69768 163.921 17.1677 6.77982 180 7.01553e-015 178.951 -173.416 41.9515 176.794 -3.16558e-006 -1.15313e-006 2.79788 -38.6352 80.3156 42.4308 8.18122 26.2535 -2.29344 -167.652 11.9894 0.997183 4.5067e-006 -1.99009e-005 -1.44465 15.0158 -41.4503 6.14791 1.49401e-006 -2.10148e-006 -4.15237 39.4509 80.9368 -44.4126 -8.09419 28.9201 -0.583388 
43.2461 89.5237 8.4298 -0.404246 -1.57166 -0.086699 0.0824243 -0.527753 0.206887 0.163896 2.94109 0.403776 0.159241 4.58614 0.401384 12.5353 5.09503 -4.39294 -18.5148 6.02066 -2.83112 32.0503 -24.3149 -21.0337 -25.7499 37.8693 122.527 1.97519e-005 -5.11672e-007 -7.71514e-006 -18.0729 26.9385 9.01707 -1.25616e-006 2.19301e-007 -3.00821 8.02939 -4.95143 0.697656 -14.4796 -22.9705 24.3662 9.93746 39.2616 -120.84 -1.29009e-006 -3.79506e-007 4.203e-006 16.6746 22.1818 -7.02953 1.67278e-005 6.2076e-006 3.00406 -8.0291 -4.95148 -0.69768 163.988 17.6086 6.72796 180 7.01554e-015 178.954 -173.194 42.7232 176.641 -3.16558e-006 -1.15312e-006 2.90861 -40.843 80.8151 44.8175 8.17861 26.1568 -2.40546 -167.672 12.3463 1.05666 4.5067e-006 -1.99009e-005 -1.46267 15.3718 -42.1917 6.37251 1.49402e-006 -2.10147e-006 -4.34161 41.8825 81.4302 -47.0453 -8.10385 28.8125 -0.46151 
43.2628 89.2626 8.3854 -0.459444 -1.48782 -0.136411 0.0904672 -0.509696 0.213716 0.179809 2.97764 0.416425 0.175022 4.62269 0.41378 12.5711 4.41558 -4.29684 -18.6019 6.62934 -2.70625 32.1726 -24.506 -21.1993 -26.5752 37.6723 123.616 1.97519e-005 -5.11672e-007 -7.71514e-006 -18.1573 27.7295 9.2939 -1.25616e-006 2.19301e-007 -3.00821 8.02939 -4.95143 0.697656 -14.3842 -23.1382 24.6316 10.5244 39.1782 -121.927 -1.29009e-006 -3.79506e-007 4.203e-006 16.6122 22.8481 -7.231 1.67278e-005 6.2076e-006 3.00409 -8.0291 -4.95148 -0.69768 164.065 18.0585 6.6674 180 7.01554e-015 178.956 -172.964 43.4776 176.48 -3.16558e-006 -1.15311e-006 3.01419 -43.1569 81.2767 47.311 8.1757 26.0655 -2.51139 -167.69 12.7046 1.11718 4.5067e-006 -1.99009e-005 -1.48049 15.7265 -42.9171 6.60074 1.49402e-006 -2.10148e-006 -4.52817 44.5011 81.8906 -49.8624 -8.11257 28.7101 -0.345686 
43.2201 88.9944 8.30305 -0.517185 -1.39944 -0.192494 0.0985294 -0.490416 0.221108 0.195835 3.01671 0.430188 0.190905 4.66176 0.42729 12.6086 3.68059 -4.19249 -18.6924 7.28889 -2.57006 32.3162 -24.706 -21.3695 -27.4139 37.4645 124.734 1.97519e-005 -5.11672e-007 -7.71514e-006 -18.2407 28.5497 9.58247 -1.25616e-006 2.19301e-007 -3.00822 8.02939 -4.95143 0.697656 -14.2934 -23.3197 24.9174 11.1178 39.0775 -123.058 -1.29009e-006 -3.79506e-007 4.203e-006 16.5456 23.557 -7.44621 1.67278e-005 6.2076e-006 3.00413 -8.0291 -4.95148 -0.69768 164.15 18.5141 6.59903 180 7.01555e-015 178.958 -172.727 44.214 176.31 -3.16559e-006 -1.15311e-006 3.1147 -45.5744 81.7015 49.9092 8.17256 25.9795 -2.61137 -167.705 13.0615 1.17827 4.5067e-006 -1.99009e-005 -1.49806 16.0789 -43.6255 6.83166 1.49402e-006 -2.10149e-006 -4.7117 47.3209 82.318 -52.878 -8.12046 28.6122 -0.235323 
43.2013 88.7308 8.2583 -0.576636 -1.30821 -0.254107 0.106563 -0.470204 0.228876 0.211864 3.05771 0.444698 0.206781 4.70276 0.441548 12.6485 2.90588 -4.08212 -18.7862 7.98437 -2.4253 32.4753 -24.9114 -21.5422 -28.2564 37.2449 125.868 1.97519e-005 -5.11672e-007 -7.71514e-006 -18.3231 29.3929 9.88057 -1.25616e-006 2.19301e-007 -3.00823 8.02939 -4.95143 0.697656 -14.2066 -23.511 25.2182 11.7113 38.9561 -124.22 -1.29009e-006 -3.79506e-007 4.203e-006 16.476 24.2995 -7.67241 1.67278e-005 6.2076e-006 3.00417 -8.0291 -4.95148 -0.69768 164.242 18.9716 6.52376 180 7.01555e-015 178.959 -172.484 44.9315 176.132 -3.16559e-006 -1.15312e-006 3.21022 -48.0914 82.0908 52.6079 8.16926 25.8988 -2.70548 -167.718 13.414 1.23941 4.5067e-006 -1.99009e-005 -1.51533 16.428 -44.3159 7.06425 1.49403e-006 -2.10151e-006 -4.89183 50.3562 82.7122 -56.1063 -8.12761 28.5184 -0.129832 
